<svg width="0" height="0" class="hidden">
  <symbol viewBox="0 0 512.002 512.002" xmlns="http://www.w3.org/2000/svg" id="search">
    <path d="M495.594 416.408L361.508 282.313C376.193 254.823 384 223.98 384 192.001c0-50.518-19.461-98.217-54.8-134.31C293.917 21.655 246.75 1.186 196.392.055c-1.46-.033-2.92-.054-4.392-.054-105.869 0-192 86.131-192 192s86.131 192 192 192c1.459 0 2.93-.021 4.377-.054 30.456-.68 59.739-8.444 85.936-22.436l134.085 134.075C426.968 506.17 441.032 512 455.999 512s29.031-5.83 39.589-16.403c10.584-10.577 16.413-24.639 16.413-39.597s-5.827-29.019-16.407-39.592zm-299.932-64.453c-1.211.027-2.441.046-3.662.046-88.224 0-160-71.776-160-160s71.776-160 160-160c1.229 0 2.449.019 3.671.046C281.871 33.982 352 105.737 352 192.001c0 86.274-70.133 158.029-156.338 159.954zm277.296 121.02c-4.525 4.531-10.547 7.026-16.958 7.026s-12.434-2.495-16.966-7.034L309.74 343.683a194.323 194.323 0 0 0 19.458-17.365 194.67 194.67 0 0 0 14.48-16.58l129.291 129.3c4.535 4.532 7.032 10.556 7.032 16.962s-2.496 12.431-7.043 16.975z"></path>
    <path d="M192 64.001c-70.58 0-128 57.42-128 128s57.42 128 128 128 128-57.42 128-128-57.42-128-128-128zm0 224c-52.935 0-96-43.065-96-96s43.065-96 96-96 96 43.065 96 96-43.065 96-96 96z"></path>
  </symbol>
  <symbol viewBox="0 0 510 510" xmlns="http://www.w3.org/2000/svg" id="sid-view">
    <path d="M506.597 245.486C460.244 189.012 362.107 123.107 255 123.107c-107.491 0-205.632 66.353-251.597 122.379a15 15 0 0 0 0 19.028c47.452 57.84 145.819 122.38 251.597 122.38 109.537 0 207.256-68.357 251.597-122.379a15 15 0 0 0 0-19.029zM356.893 255c0 56.184-45.709 101.894-101.894 101.894-56.186 0-101.894-45.713-101.894-101.894 0-56.184 45.709-101.894 101.894-101.894 56.19.001 101.894 45.716 101.894 101.894zm-321.631.004c16.883-17.547 57.591-55.416 114.736-79.721-35.862 47.122-35.876 112.273-.017 159.412-43.449-18.415-83.811-47.509-114.719-79.691zm324.74 79.713c35.862-47.123 35.875-112.273.017-159.412 43.447 18.415 83.81 47.51 114.719 79.69-16.883 17.549-57.591 55.416-114.736 79.722z"></path>
    <path d="M204 255c0 28.122 22.878 51 51 51 28.121 0 51-22.878 51-51s-22.879-51-51-51c-28.122 0-51 22.878-51 51zm72 0c0 11.58-9.421 21-21 21-11.58 0-21-9.42-21-21s9.42-21 21-21c11.579 0 21 9.42 21 21zM255 65c8.284 0 15-6.716 15-15V15c0-8.284-6.716-15-15-15s-15 6.716-15 15v35c0 8.284 6.716 15 15 15zm89.5 20.062c7.192 4.102 16.355 1.601 20.461-5.599l19.962-35c4.104-7.196 1.599-16.356-5.598-20.461-7.198-4.104-16.356-1.599-20.461 5.599l-19.962 35c-4.104 7.195-1.598 16.356 5.598 20.461zm-199.461-5.599c4.104 7.196 13.264 9.702 20.461 5.598 7.196-4.104 9.702-13.265 5.598-20.461l-19.962-35c-4.104-7.196-13.266-9.702-20.461-5.598-7.196 4.104-9.702 13.265-5.598 20.461zM255 445c-8.284 0-15 6.716-15 15v35c0 8.284 6.716 15 15 15s15-6.716 15-15v-35c0-8.284-6.716-15-15-15zm-89.5-20.061c-7.196-4.103-16.356-1.598-20.461 5.598l-19.962 35c-4.104 7.196-1.598 16.357 5.598 20.461 7.197 4.104 16.357 1.597 20.461-5.598l19.962-35c4.105-7.196 1.598-16.357-5.598-20.461zm199.461 5.598c-4.104-7.197-13.267-9.701-20.461-5.599-7.196 4.104-9.702 13.265-5.598 20.461l19.962 35c4.103 7.196 13.263 9.703 20.461 5.599 7.196-4.104 9.702-13.265 5.598-20.461z"></path>
  </symbol>
  <symbol xmlns="http://www.w3.org/2000/svg" viewBox="0 0 42.562 42.562" id="github">
    <path d="M33.052 20.892c3.347.263 6.67.55 9.416 1.407-2.724-.446-6.031-1.124-9.416-1.219-1.397 2.76-4.214 4.116-8.099 4.401.418.908 1.218 1.254 1.414 2.717.289 2.185-.457 5.383.279 6.838.354.697.93.715 1.318 1.312-.951 1.125-3.311-.127-3.578-1.312-.461-2.03.7-5.18-.564-6.559.09 2.217-.522 5.326.095 7.307.243.777.946 1.08.754 1.781-4.423.449-2.574-5.725-3.297-9.367-.668.047-.375 1-.377 1.404-.02 3.559.729 8.438-3.107 7.963-.111-.746.517-1.004.754-1.686.699-2.002-.131-4.986.19-7.402-1.464 1.104.153 4.957-.755 6.934-.521 1.136-2.206 1.631-3.482 1.123.166-.848 1.041-.709 1.412-1.498.518-1.102.002-2.686.188-4.311-2.71.541-4.812-.076-5.84-1.779-.459-.764-.574-1.664-1.129-2.34-.556-.68-1.438-.77-1.694-1.688 3.354-.809 3.483 3.453 6.497 3.559.925.033 1.404-.268 2.26-.467.238-1.074.752-1.877 1.507-2.438-3.75-.515-6.847-1.683-8.286-4.495-3.408.168-6.527.623-9.418 1.312 2.623-.954 5.856-1.294 9.324-1.405-.205-1.229-1.996-.891-3.107-.844-2.065.092-4.668.349-6.311.657 2.383-.85 5.723-.744 8.947-.75-.986-3.093-.646-8.006 1.506-9.836-.609-1.535-.42-4.05.377-5.246 2.4.108 3.857 1.155 5.367 2.155 1.871-.532 3.839-.797 6.402-.655 1.078.062 2.201.543 3.013.467.797-.072 1.676-.969 2.448-1.31 1.009-.446 1.86-.614 3.015-.657.554 1.258.912 3.344.377 4.871 2.188 1.868 2.938 6.407 1.883 10.118 3.117.237 6.83-.114 9.229.843-2.24-.289-5.301-.854-8.189-.656-.553.038-1.362-.018-1.323.751z"></path>
  </symbol>
</svg>